<svg width="221" height="221" viewBox="0 0 221 221" fill="none" xmlns="http://www.w3.org/2000/svg">
<path opacity="0.653995" fill-rule="evenodd" clip-rule="evenodd" d="M110.5 164.767C110.168 164.767 109.837 164.76 109.506 164.754C95.3825 164.502 82.1423 158.887 72.1272 148.872C61.8775 138.622 56.2334 124.995 56.2334 110.499C56.2334 96.0042 61.8775 82.3772 72.1272 72.1276C82.1423 62.1124 95.3825 56.497 109.506 56.245C109.837 56.2394 110.168 56.2332 110.5 56.2332C124.995 56.2332 138.622 61.8779 148.872 72.1276C159.054 82.3103 164.69 95.8276 164.763 110.217C164.764 110.312 164.767 110.405 164.767 110.499C164.767 124.995 159.122 138.622 148.872 148.872C138.622 159.122 124.995 164.767 110.5 164.767ZM110.5 0C110.167 0 109.837 0.00955965 109.506 0.0123713C48.9371 0.547149 0 49.8047 0 110.499C0 171.194 48.9371 220.452 109.506 220.987C109.837 220.99 110.167 221 110.5 221C171.527 221 221 171.527 221 110.499C221 110.405 220.996 110.312 220.996 110.217C220.843 49.3199 171.433 0 110.5 0Z" fill="url(#paint0_linear)"/>
<defs>
<linearGradient id="paint0_linear" x1="-44.0491" y1="108.135" x2="108.294" y2="269.506" gradientUnits="userSpaceOnUse">
<stop stop-color="#C9F7F7"/>
<stop offset="1" stop-color="#3B16C1"/>
</linearGradient>
</defs>
</svg>
